<svg xmlns="http://www.w3.org/2000/svg" viewBox="0 0 16 16" width="16" height="16" shape-rendering="crispEdges">
  <!-- ears -->
  <rect x="3" y="0" width="2" height="5" fill="#D9D2FF"/>
  <rect x="11" y="0" width="2" height="5" fill="#D9D2FF"/>
  <rect x="4" y="1" width="1" height="3" fill="#FFD6E8"/>
  <rect x="12" y="1" width="1" height="3" fill="#FFD6E8"/>
  <!-- head -->
  <rect x="3" y="5" width="10" height="7" fill="#EEF8FF"/>
  <!-- cheeks -->
  <rect x="3" y="9" width="2" height="1" fill="#FFD6E8"/>
  <rect x="11" y="9" width="2" height="1" fill="#FFD6E8"/>
  <!-- eyes -->
  <rect x="5" y="7" width="2" height="2" fill="#5D8DE8"/>
  <rect x="9" y="7" width="2" height="2" fill="#5D8DE8"/>
  <rect x="6" y="7" width="1" height="1" fill="#fff"/>
  <rect x="10" y="7" width="1" height="1" fill="#fff"/>
  <!-- nose -->
  <rect x="7" y="10" width="2" height="1" fill="#FF9EC4"/>
  <!-- body -->
  <rect x="4" y="12" width="8" height="4" fill="#D9D2FF"/>
  <!-- feet -->
  <rect x="3" y="14" width="3" height="2" fill="#C4BCFF"/>
  <rect x="10" y="14" width="3" height="2" fill="#C4BCFF"/>
</svg>
