<svg xmlns="http://www.w3.org/2000/svg" viewBox="0 0 16 16" width="16" height="16" shape-rendering="crispEdges">
  <!-- body top arc -->
  <rect x="4" y="2" width="8" height="2" fill="#D9D2FF"/>
  <rect x="2" y="4" width="12" height="8" fill="#D9D2FF"/>
  <rect x="3" y="3" width="10" height="1" fill="#D9D2FF"/>
  <!-- wavy bottom -->
  <rect x="2" y="12" width="2" height="2" fill="#D9D2FF"/>
  <rect x="4" y="13" width="2" height="3" fill="#D9D2FF"/>
  <rect x="6" y="12" width="2" height="2" fill="#D9D2FF"/>
  <rect x="8" y="13" width="2" height="3" fill="#D9D2FF"/>
  <rect x="10" y="12" width="2" height="2" fill="#D9D2FF"/>
  <rect x="12" y="13" width="2" height="3" fill="#D9D2FF"/>
  <!-- eyes -->
  <rect x="5" y="6" width="2" height="3" fill="#5D8DE8"/>
  <rect x="9" y="6" width="2" height="3" fill="#5D8DE8"/>
  <rect x="6" y="6" width="1" height="1" fill="#EEF8FF"/>
  <rect x="10" y="6" width="1" height="1" fill="#EEF8FF"/>
  <!-- blush -->
  <rect x="4" y="9" width="2" height="1" fill="#FFD6E8"/>
  <rect x="10" y="9" width="2" height="1" fill="#FFD6E8"/>
  <!-- smile -->
  <rect x="6" y="10" width="4" height="1" fill="#8FB8FF"/>
  <rect x="5" y="9" width="1" height="1" fill="#8FB8FF"/>
  <rect x="10" y="9" width="1" height="1" fill="#8FB8FF"/>
</svg>
