<svg xmlns="http://www.w3.org/2000/svg" viewBox="0 0 16 16" width="16" height="16" shape-rendering="crispEdges">
  <!-- outer ring -->
  <rect x="4" y="0" width="8" height="2" fill="#8FB8FF"/>
  <rect x="4" y="14" width="8" height="2" fill="#8FB8FF"/>
  <rect x="0" y="4" width="2" height="8" fill="#8FB8FF"/>
  <rect x="14" y="4" width="2" height="8" fill="#8FB8FF"/>
  <rect x="2" y="2" width="2" height="2" fill="#8FB8FF"/>
  <rect x="12" y="2" width="2" height="2" fill="#8FB8FF"/>
  <rect x="2" y="12" width="2" height="2" fill="#8FB8FF"/>
  <rect x="12" y="12" width="2" height="2" fill="#8FB8FF"/>
  <!-- inner ring -->
  <rect x="5" y="2" width="6" height="1" fill="#D9D2FF"/>
  <rect x="5" y="13" width="6" height="1" fill="#D9D2FF"/>
  <rect x="2" y="5" width="1" height="6" fill="#D9D2FF"/>
  <rect x="13" y="5" width="1" height="6" fill="#D9D2FF"/>
  <!-- fill -->
  <rect x="3" y="3" width="10" height="10" fill="#EEF8FF"/>
  <!-- swirl -->
  <rect x="6" y="5" width="4" height="1" fill="#8FB8FF"/>
  <rect x="5" y="6" width="1" height="4" fill="#8FB8FF"/>
  <rect x="6" y="10" width="3" height="1" fill="#8FB8FF"/>
  <rect x="9" y="7" width="1" height="3" fill="#D9D2FF"/>
  <rect x="7" y="7" width="2" height="2" fill="#D9D2FF"/>
</svg>
